<svg width="515" height="515" viewBox="0 0 515 515" fill="none" xmlns="http://www.w3.org/2000/svg">
<path opacity="0.16" d="M269.305 2.93178C260.265 -0.977259 254.734 -0.977259 245.694 2.93178C214.606 16.3749 229.243 130.795 241.558 201.584C214.692 134.944 166.791 30.007 133.288 34.979C123.546 36.4248 118.845 39.3419 113.226 47.4303C95.5248 72.9089 155.096 150.139 201.961 204.17C146.073 159.535 66.4896 103.147 41.7501 121.867C33.8963 127.81 31.1724 132.625 30.123 142.418C26.7278 174.104 121.068 214.579 188.603 239.36C117.62 227.673 15.5802 216.444 2.93178 245.694C-0.977259 254.734 -0.977259 260.266 2.93178 269.306C15.5802 298.556 117.62 287.327 188.603 275.64C121.068 300.422 26.7277 340.896 30.123 372.582C31.1723 382.375 33.8963 387.19 41.7501 393.133C66.4894 411.853 146.072 355.465 201.96 310.831C155.095 364.862 95.5245 442.091 113.226 467.57C118.845 475.658 123.545 478.575 133.287 480.021C166.791 484.993 214.692 380.055 241.559 313.414C229.244 384.203 214.605 498.625 245.694 512.068C254.734 515.977 260.265 515.977 269.305 512.068C300.395 498.625 285.755 384.195 273.439 313.407C300.305 380.047 348.209 484.993 381.713 480.021C391.456 478.575 396.156 475.658 401.775 467.57C419.476 442.091 359.906 364.862 313.041 310.831C368.929 355.465 448.512 411.853 473.251 393.133C481.105 387.19 483.829 382.375 484.878 372.582C488.273 340.896 393.934 300.422 326.399 275.64C397.381 287.327 499.42 298.556 512.068 269.306C515.977 260.266 515.977 254.734 512.068 245.694C499.42 216.444 397.381 227.673 326.399 239.36C393.934 214.578 488.273 174.104 484.878 142.418C483.828 132.625 481.104 127.81 473.251 121.867C448.511 103.147 368.927 159.536 313.039 204.17C359.905 150.139 419.476 72.9089 401.775 47.4303C396.155 39.3419 391.455 36.4248 381.713 34.979C348.209 30.0068 300.305 134.951 273.44 201.591C285.755 130.803 300.395 16.3753 269.305 2.93178Z" fill="#2C2151"/>
</svg>
